
<svg xmlns="http://www.w3.org/2000/svg" width="512" height="512" viewBox="0 0 512 512">
  <defs>
    <linearGradient id="bgGradient" x1="0%" y1="0%" x2="100%" y2="100%">
      <stop offset="0%" stop-color="#4CAF50" />
      <stop offset="100%" stop-color="#388E3C" />
    </linearGradient>
  </defs>
  <rect x="0" y="0" width="512" height="512" rx="128" fill="url(#bgGradient)" />
  <g fill="#FFFFFF">
    <path d="M256 128c-70.7 0-128 57.3-128 128s57.3 128 128 128 128-57.3 128-128-57.3-128-128-128zm0 235c-59.1 0-107-47.9-107-107s47.9-107 107-107 107 47.9 107 107-47.9 107-107 107z"/>
    <path d="M256 195l-46 33.5 17.6 54.2h56.8l17.6-54.2z"/>
    <path d="M212.3 182.1l-51.1-6.3-27.3 48.8 30.4 43.7 52.6-20.7-4.6-65.5zm134.9 42.6l-27.3-48.8-51.1 6.3-4.6 65.5 52.6 20.7 30.4-43.7z"/>
    <circle cx="205" cy="335" r="12"/>
    <circle cx="307" cy="335" r="12"/>
    <circle cx="164" cy="256" r="12"/>
    <circle cx="348" cy="256" r="12"/>
    <circle cx="256" cy="177" r="12"/>
  </g>
</svg>
